<mxfile host="app.diagrams.net" modified="2024-04-03T09:58:14.794Z" agent="Mozilla/5.0 (X11; Ubuntu; Linux x86_64; rv:109.0) Gecko/20100101 Firefox/118.0" version="24.2.1" etag="Vqy81MOs9KVqLxKiTdh_" type="github">
  <diagram name="Page-1" id="5uAjPilYSxcBxoZrvo4F">
    <mxGraphModel>
      <root>
        <mxCell id="0" />
        <mxCell id="1" parent="0" />
      </root>
    </mxGraphModel>
  </diagram>
</mxfile>
